<svg xmlns="http://www.w3.org/2000/svg" width="148.575" height="28.275" viewBox="0 0 148.575 28.275"><defs><style>.a{fill:#ee3670;}.b{fill:#412e7d;}.c{fill:#f1e9b5;}.d{fill:#16b9a7;}.e{fill:#08031a;}</style></defs><g transform="translate(0 0.007)"><g transform="translate(0 -0.007)"><path class="a" d="M27.355,9.111c-.1-.259-.2-.515-.317-.764a5.491,5.491,0,0,0-.952.2,5.849,5.849,0,0,0-4.136,5.586q0,.056,0,.113a5.849,5.849,0,0,0,4.129,5.46,5.525,5.525,0,0,0,.956.2c.113-.253.218-.505.314-.764a14.056,14.056,0,0,0,.921-4.911v-.113A14.118,14.118,0,0,0,27.355,9.111ZM14.889,19.926a5.44,5.44,0,0,1-.751.051A5.835,5.835,0,0,1,8.3,14.251v-.113A5.839,5.839,0,0,1,14.138,8.3a5.488,5.488,0,0,1,.754.051,14.165,14.165,0,0,1,6.071-6.59,13.65,13.65,0,0,0-1.706-.8A14.146,14.146,0,0,0,0,14.138v.113A14.145,14.145,0,0,0,15.844,28.17a13.424,13.424,0,0,0,1.706-.314,13.773,13.773,0,0,0,1.706-.539,14.445,14.445,0,0,0,1.706-.8,14.189,14.189,0,0,1-6.074-6.593Z" transform="translate(0 0.002)"/><path class="b" d="M37.355,9.109a5.8,5.8,0,0,0-2.976-.816,6.009,6.009,0,0,0-1.706.256,5.8,5.8,0,0,0-3.413,2.774,5.829,5.829,0,0,1,.72,2.812v.113a5.825,5.825,0,0,1-.717,2.7,5.859,5.859,0,0,0,3.413,2.774,6.2,6.2,0,0,0,1.706.253,5.8,5.8,0,0,0,2.972-.812,14.06,14.06,0,0,0,.921-4.914v-.113a14.118,14.118,0,0,0-.921-5.027ZM21.476,19.924c-.113-.249-.218-.505-.314-.761A5.832,5.832,0,0,1,18.3,14.249v-.113a5.832,5.832,0,0,1,2.86-5.027c.1-.259.2-.515.321-.764a14.165,14.165,0,0,1,6.071-6.59,13.651,13.651,0,0,1,1.706-.8A13.773,13.773,0,0,0,27.551.414,13.425,13.425,0,0,0,25.844.1,14.138,14.138,0,0,0,10,14.136v.113a14.145,14.145,0,0,0,15.844,13.92,13.424,13.424,0,0,0,1.706-.314,13.114,13.114,0,0,0,1.706-.543,13.159,13.159,0,0,1-1.706-.8,14.189,14.189,0,0,1-6.074-6.593Z" transform="translate(-6.587 0.004)"/><path class="c" d="M43.942,9.107a5.8,5.8,0,0,0-2.976-.816,6.01,6.01,0,0,0-1.706.256,5.76,5.76,0,0,0-1.706.846,5.832,5.832,0,0,1,2.426,4.74v.113a5.825,5.825,0,0,1-2.423,4.624,5.832,5.832,0,0,0,1.706.85,6.2,6.2,0,0,0,1.706.253,5.839,5.839,0,0,0,5.835-5.726q0-.056,0-.113a5.835,5.835,0,0,0-2.863-5.027Zm-9.8,17.4a14.189,14.189,0,0,1-6.078-6.59c-.113-.249-.218-.505-.314-.761a14.06,14.06,0,0,1-.925-4.914v-.113a14.118,14.118,0,0,1,.921-5.027c.1-.259.2-.515.321-.764a14.165,14.165,0,0,1,6.071-6.59A13.793,13.793,0,0,1,37.551.412,13.425,13.425,0,0,0,35.844.1,14.128,14.128,0,0,0,20,14.134v.113A14.142,14.142,0,0,0,30.726,27.852a13.424,13.424,0,0,0,1.706.314,14.24,14.24,0,0,0,3.413,0,13.37,13.37,0,0,0,1.706-.314,13.015,13.015,0,0,1-1.706-.543,13.159,13.159,0,0,1-1.7-.8Z" transform="translate(-13.175 0.007)"/><path class="d" d="M50.53,9.112A5.8,5.8,0,0,0,47.554,8.3a6.009,6.009,0,0,0-1.706.256,5.719,5.719,0,0,1,1.269.56,5.839,5.839,0,0,1,2.863,5.027q0,.056,0,.113a5.822,5.822,0,0,1-2.863,4.911,5.729,5.729,0,0,1-1.269.563,6.2,6.2,0,0,0,1.706.253,5.839,5.839,0,0,0,5.839-5.727c0-.036,0-.074,0-.112A5.835,5.835,0,0,0,50.53,9.112ZM42.435,27.3a13.159,13.159,0,0,1-1.706-.8,14.189,14.189,0,0,1-6.078-6.579c-.113-.249-.218-.505-.314-.761a14.059,14.059,0,0,1-.925-4.914v-.113a14.118,14.118,0,0,1,.921-5.027c.1-.259.2-.515.321-.764a14.165,14.165,0,0,1,6.071-6.59A13.794,13.794,0,0,1,44.138.417,13.479,13.479,0,0,1,45.844.1a14.3,14.3,0,0,0-3.413,0,13.425,13.425,0,0,0-1.706.314,13.773,13.773,0,0,0-1.706.539A14.131,14.131,0,0,0,30,14.139v.113a14.135,14.135,0,0,0,9.019,13.067,13.774,13.774,0,0,0,1.706.539,13.373,13.373,0,0,0,1.706.314,14.333,14.333,0,0,0,3.413,0,13.37,13.37,0,0,1-1.706-.314A13.015,13.015,0,0,1,42.435,27.3Z" transform="translate(-19.762 0.002)"/><path class="e" d="M163.978,23.668a5.225,5.225,0,0,1,4,1.73,5.975,5.975,0,0,1,1.58,4.225,5.979,5.979,0,0,1-1.6,4.225,5.225,5.225,0,0,1-4,1.73,4.651,4.651,0,0,1-3.559-1.583v5.975H157.46V23.961h2.914v1.392a4.583,4.583,0,0,1,3.6-1.686Zm-.532,9.224a2.962,2.962,0,0,0,2.28-.921,3.492,3.492,0,0,0,0-4.621,3.187,3.187,0,0,0-4.518,0,3.492,3.492,0,0,0,0,4.621A2.942,2.942,0,0,0,163.446,32.892Z" transform="translate(-103.726 -15.588)"/><path class="e" d="M200.415,11.41V27.23H197.48V11.41Z" transform="translate(-130.089 -7.514)"/><path class="e" d="M219.768,25.312V23.947h2.788V35.3h-2.788v-1.31a4.73,4.73,0,0,1-3.624,1.583,5.255,5.255,0,0,1-4.037-1.706,6.061,6.061,0,0,1-1.583-4.29,5.859,5.859,0,0,1,1.6-4.228,5.317,5.317,0,0,1,4.017-1.686A4.733,4.733,0,0,1,219.768,25.312Zm.041,4.31a3.266,3.266,0,0,0-.915-2.31,3.187,3.187,0,0,0-4.559,0,3.511,3.511,0,0,0,.021,4.658,3.163,3.163,0,0,0,4.539,0A3.293,3.293,0,0,0,219.809,29.622Z" transform="translate(-138.68 -15.587)"/><path class="e" d="M256.248,35.549a5.931,5.931,0,0,1-4.327-1.665,5.689,5.689,0,0,1-1.689-4.266,5.665,5.665,0,0,1,1.706-4.269,6.03,6.03,0,0,1,4.392-1.686,6.207,6.207,0,0,1,3.174.833,5.119,5.119,0,0,1,2.116,2.351l-2.351,1.29a3.229,3.229,0,0,0-2.894-1.73,3.051,3.051,0,0,0-2.31.938,3.109,3.109,0,0,0-.918,2.29,3.194,3.194,0,0,0,.9,2.331,3.071,3.071,0,0,0,2.269.918,3.307,3.307,0,0,0,1.706-.481,2.942,2.942,0,0,0,1.184-1.229l2.389,1.4a5.419,5.419,0,0,1-2.153,2.187,6.33,6.33,0,0,1-3.191.792Z" transform="translate(-164.837 -15.583)"/><path class="e" d="M297.029,29.368a9.584,9.584,0,0,1-.106,1.29h-8.514a3.046,3.046,0,0,0,3.31,2.416,6.381,6.381,0,0,0,3.665-1.147l1.167,2.048a8.255,8.255,0,0,1-4.955,1.573,5.692,5.692,0,0,1-6.163-5.931,5.832,5.832,0,0,1,1.645-4.269,5.7,5.7,0,0,1,4.269-1.686,5.644,5.644,0,0,1,4.1,1.542A5.538,5.538,0,0,1,297.029,29.368ZM291.347,26.1a2.9,2.9,0,0,0-1.887.635,3.136,3.136,0,0,0-1.051,1.737h5.767a2.907,2.907,0,0,0-.955-1.737A2.805,2.805,0,0,0,291.347,26.1Z" transform="translate(-188.026 -15.582)"/><path class="e" d="M322,29.586a5.74,5.74,0,0,1,1.706-4.225,6.334,6.334,0,0,1,8.743,0,5.726,5.726,0,0,1,1.706,4.225,5.754,5.754,0,0,1-1.706,4.245,6.388,6.388,0,0,1-8.743,0A5.763,5.763,0,0,1,322,29.586Zm3.832,2.31a2.972,2.972,0,0,0,2.245.938A3,3,0,0,0,330.3,31.9a3.266,3.266,0,0,0,.915-2.31,3.194,3.194,0,0,0-.915-2.29,3,3,0,0,0-2.228-.938,2.972,2.972,0,0,0-2.245.938,3.146,3.146,0,0,0-.9,2.29,3.262,3.262,0,0,0,.911,2.31Z" transform="translate(-212.113 -15.551)"/><path class="e" d="M369.473,17.171v-5.8h2.935V27.2h-2.873V25.812a4.365,4.365,0,0,1-3.518,1.665A5.262,5.262,0,0,1,362,25.771a6.02,6.02,0,0,1-1.6-4.266A5.992,5.992,0,0,1,362,17.26a5.313,5.313,0,0,1,4.017-1.706A4.436,4.436,0,0,1,369.473,17.171Zm.143,4.351a3.256,3.256,0,0,0-.874-2.31,2.935,2.935,0,0,0-2.269-.959,3,3,0,0,0-2.29.959,3.256,3.256,0,0,0-.853,2.31,3.358,3.358,0,0,0,.857,2.348,3.034,3.034,0,0,0,2.29.938,2.969,2.969,0,0,0,2.269-.938,3.358,3.358,0,0,0,.874-2.348Z" transform="translate(-237.408 -7.488)"/><path class="e" d="M409.354,25.312V23.947h2.791V35.3h-2.791v-1.31a4.72,4.72,0,0,1-3.621,1.583A5.255,5.255,0,0,1,401.7,33.87a6.043,6.043,0,0,1-1.583-4.29,5.859,5.859,0,0,1,1.6-4.228,5.313,5.313,0,0,1,4.017-1.686A4.72,4.72,0,0,1,409.354,25.312Zm.044,4.31a3.269,3.269,0,0,0-.918-2.31,3.187,3.187,0,0,0-4.559,0,3.511,3.511,0,0,0,.02,4.658,3.163,3.163,0,0,0,4.539,0A3.293,3.293,0,0,0,409.4,29.622Z" transform="translate(-263.571 -15.587)"/></g></g></svg>